Coordinates
version=1
nRows=14
nColumns=24
inDegrees=yes

Units are S.I. units (second, meters, Newtons, ...)
Angles are in degrees.

endheader
time	pelvis_tilt	pelvis_list	pelvis_rotation	pelvis_tx	pelvis_ty	pelvis_tz	hip_flexion_r	hip_adduction_r	hip_rotation_r	knee_angle_r	ankle_angle_r	subtalar_angle_r	mtp_angle_r	hip_flexion_l	hip_adduction_l	hip_rotation_l	knee_angle_l	ankle_angle_l	subtalar_angle_l	mtp_angle_l	lumbar_extension	lumbar_bending	lumbar_rotation
      2.22500000	      5.02900852	     -5.35354213	      0.49209736	      0.33666929	      1.01945662	      0.06908937	      1.34081389	      7.66128939	     -2.53359850	     -8.83841056	      5.45021286	     -3.51665894	      8.63719999	     16.47958796	    -10.01562797	     -7.47442882	    -66.10841550	      1.39733715	     -8.34049015	     30.98492501	    -14.78820786	      8.89738196	      2.68001072
      2.23000000	      5.08449102	     -5.27326401	      0.32880425	      0.34149098	      1.01991305	      0.06965303	      0.86624859	      7.59188229	     -2.51990275	     -8.65750782	      5.69283176	     -3.19923330	      8.42229700	     16.92756848	     -9.88090027	     -7.55636481	    -65.65237033	      1.95605422	     -7.87688545	     30.88488900	    -14.89515187	      8.75764381	      2.85553400
      2.23500000	      5.18733768	     -5.17218633	      0.18074130	      0.34638186	      1.02044991	      0.07013963	      0.33789437	      7.48928557	     -2.61328300	     -8.48616554	      6.09632493	     -2.71563650	      6.50028374	     17.28404199	     -9.71098417	     -7.64980718	    -65.11545797	      2.64572248	     -7.42079196	     29.41191525	    -15.04536464	      8.60230436	      3.00930044
      2.24000000	      5.26720354	     -5.10495304	      0.02532377	      0.35124568	      1.02088835	      0.07067002	     -0.17095015	      7.42810908	     -2.64452698	     -8.29069457	      6.29078698	     -2.44291304	      6.47040122	     17.65878651	     -9.58791148	     -7.73105942	    -64.53220627	      3.14202471	     -7.06079528	     29.51000045	    -15.17006641	      8.47843790	      3.18286618
      2.24500000	      5.38354212	     -5.01600958	     -0.14884289	      0.35619818	      1.02139869	      0.07124201	     -0.73217073	      7.34061883	     -2.69103920	     -8.08211958	      6.47890746	     -2.11579848	      6.41885656	     17.93941442	     -9.45473709	     -7.86567010	    -63.85160878	      3.59826595	     -6.77396661	     29.55058819	    -15.32493512	      8.32029449	      3.36179019
      2.25000000	      5.57021800	     -4.94448116	     -0.30497358	      0.36120372	      1.02198017	      0.07177086	     -1.39678097	      7.26439697	     -2.75609568	     -7.82735512	      6.68663671	     -1.70567059	      6.23011934	     18.11795424	     -9.33609004	     -7.99073556	    -63.10804373	      4.00677910	     -6.54708516	     29.47253301	    -15.55088026	      8.18442550	      3.52491354
      2.25500000	      5.73020472	     -4.85651983	     -0.48075156	      0.36618201	      1.02250785	      0.07229998	     -2.01586592	      7.16698234	     -2.80950150	     -7.60150935	      6.88279351	     -1.34824186	      5.93221674	     18.29579622	     -9.19398041	     -8.11620676	    -62.30110679	      4.41586837	     -6.30365789	     29.31760803	    -15.74843980	      8.02732783	      3.72337763
      2.26000000	      5.86867080	     -4.77955529	     -0.67081475	      0.37117620	      1.02295852	      0.07286198	     -2.61780318	      7.07879420	     -2.83076746	     -7.36741208	      7.10673836	     -0.98969692	      5.58764807	     18.47449403	     -9.07547106	     -8.25481464	    -61.45020196	      4.79047181	     -6.04397636	     29.12077791	    -15.91898358	      7.87661089	      3.91926285
      2.26500000	      5.89806017	     -4.68581294	     -0.89274642	      0.37614064	      1.02322627	      0.07348057	     -3.08368832	      6.97420994	     -2.79113306	     -7.16422592	      7.32811447	     -0.73691714	      5.48556640	     18.75158367	     -8.95083188	     -8.40946717	    -60.55484439	      5.09092477	     -5.76210814	     29.08265733	    -15.96949831	      7.69955810	      4.10652415
      2.27000000	      6.14589801	     -4.60733588	     -1.06280598	      0.38121913	      1.02379985	      0.07398412	     -3.83557573	      6.87317617	     -2.83952353	     -6.87729250	      7.53005894	     -0.33328662	      5.02238217	     18.74448070	     -8.81616436	     -8.52770698	    -59.56740350	      5.41178588	     -5.55543593	     28.77252003	    -16.24734065	      7.54720854	      4.30193606
      2.27500000	      6.24225271	     -4.54788084	     -1.31866436	      0.38622413	      1.02408768	      0.07464035	     -4.39099689	      6.79124028	     -2.74283278	     -6.65182877	      7.80290631	      0.00841693	      4.77731639	     18.88725134	     -8.74565484	     -8.71117851	    -58.57103064	      5.67264921	     -5.24977203	     28.62646655	    -16.36880970	      7.39561291	      4.54569488
      2.28000000	      6.37490046	     -4.45603408	     -1.49676611	      0.39130935	      1.02440717	      0.07514694	     -4.98821621	      6.67098306	     -2.81199209	     -6.43320569	      8.24448574	      0.46355691	      2.85278864	     18.96832286	     -8.59738975	     -8.81368140	    -57.51448593	      6.07574247	     -4.91606091	     27.41813475	    -16.51031529	      7.22743780	      4.69681290
      2.28500000	      6.48682689	     -4.40270939	     -1.75719997	      0.39634924	      1.02467618	      0.07580855	     -5.57844267	      6.59013185	     -2.68847538	     -6.16798969	      8.38566126	      0.69728298	      2.76667513	     19.03662274	     -8.53519237	     -8.99431968	    -56.40643856	      6.25102806	     -4.63104936	     27.45131001	    -16.64230367	      7.07712099	      4.95132732
      2.29000000	      6.61293381	     -4.33449500	     -1.99633566	      0.40140362	      1.02492217	      0.07638872	     -6.17897122	      6.48523642	     -2.60639118	     -5.91654862	      8.59135271	      0.97150440	      2.66411735	     19.06938440	     -8.43686937	     -9.14163557	    -55.24931054	      6.41771408	     -4.36963891	     27.42845366	    -16.78325752	      6.91884189	      5.18252943
